<svg xmlns="http://www.w3.org/2000/svg" viewBox="0 0 64 64" fill="none">
  <rect x="16" y="16" width="32" height="32" rx="3" fill="#1a1a2e" stroke="#4A90D9" stroke-width="2"/>
  <rect x="22" y="22" width="20" height="20" rx="2" fill="#4A90D9" opacity="0.3"/>
  <rect x="26" y="26" width="12" height="12" rx="1" fill="#4A90D9"/>
  <!-- pins left -->
  <line x1="10" y1="22" x2="16" y2="22" stroke="#4A90D9" stroke-width="2"/>
  <line x1="10" y1="28" x2="16" y2="28" stroke="#4A90D9" stroke-width="2"/>
  <line x1="10" y1="34" x2="16" y2="34" stroke="#4A90D9" stroke-width="2"/>
  <line x1="10" y1="40" x2="16" y2="40" stroke="#4A90D9" stroke-width="2"/>
  <!-- pins right -->
  <line x1="48" y1="22" x2="54" y2="22" stroke="#4A90D9" stroke-width="2"/>
  <line x1="48" y1="28" x2="54" y2="28" stroke="#4A90D9" stroke-width="2"/>
  <line x1="48" y1="34" x2="54" y2="34" stroke="#4A90D9" stroke-width="2"/>
  <line x1="48" y1="40" x2="54" y2="40" stroke="#4A90D9" stroke-width="2"/>
  <!-- pins top -->
  <line x1="22" y1="10" x2="22" y2="16" stroke="#4A90D9" stroke-width="2"/>
  <line x1="30" y1="10" x2="30" y2="16" stroke="#4A90D9" stroke-width="2"/>
  <line x1="38" y1="10" x2="38" y2="16" stroke="#4A90D9" stroke-width="2"/>
  <!-- pins bottom -->
  <line x1="22" y1="48" x2="22" y2="54" stroke="#4A90D9" stroke-width="2"/>
  <line x1="30" y1="48" x2="30" y2="54" stroke="#4A90D9" stroke-width="2"/>
  <line x1="38" y1="48" x2="38" y2="54" stroke="#4A90D9" stroke-width="2"/>
</svg>
