<svg xmlns="http://www.w3.org/2000/svg" viewBox="0 0 64 64" fill="none">
  <rect x="6" y="20" width="52" height="24" rx="3" fill="#1a1a2e" stroke="#50C878" stroke-width="2"/>
  <!-- chips -->
  <rect x="12" y="26" width="8" height="12" rx="1" fill="#50C878" opacity="0.7"/>
  <rect x="24" y="26" width="8" height="12" rx="1" fill="#50C878" opacity="0.7"/>
  <rect x="36" y="26" width="8" height="12" rx="1" fill="#50C878" opacity="0.7"/>
  <rect x="48" y="26" width="6" height="12" rx="1" fill="#50C878" opacity="0.4"/>
  <!-- notch -->
  <rect x="28" y="44" width="8" height="4" rx="1" fill="#50C878" opacity="0.5"/>
  <!-- pins -->
  <line x1="10" y1="48" x2="10" y2="52" stroke="#50C878" stroke-width="2"/>
  <line x1="14" y1="48" x2="14" y2="52" stroke="#50C878" stroke-width="2"/>
  <line x1="18" y1="48" x2="18" y2="52" stroke="#50C878" stroke-width="2"/>
  <line x1="22" y1="48" x2="22" y2="52" stroke="#50C878" stroke-width="2"/>
  <line x1="30" y1="48" x2="30" y2="52" stroke="#50C878" stroke-width="2"/>
  <line x1="34" y1="48" x2="34" y2="52" stroke="#50C878" stroke-width="2"/>
  <line x1="38" y1="48" x2="38" y2="52" stroke="#50C878" stroke-width="2"/>
  <line x1="42" y1="48" x2="42" y2="52" stroke="#50C878" stroke-width="2"/>
  <line x1="46" y1="48" x2="46" y2="52" stroke="#50C878" stroke-width="2"/>
  <line x1="50" y1="48" x2="50" y2="52" stroke="#50C878" stroke-width="2"/>
</svg>
